<svg xmlns="http://www.w3.org/2000/svg" xmlns:xlink="http://www.w3.org/1999/xlink" width="15" height="15" viewBox="0 0 15 15">
  <defs>
    <linearGradient id="linear-gradient" y1="0.5" x2="1" y2="0.5" gradientUnits="objectBoundingBox">
      <stop offset="0" stop-color="#ee0979"/>
      <stop offset="1" stop-color="#ff6a00"/>
    </linearGradient>
  </defs>
  <path id="_ionicons_svg_ios-skip-backward" d="M99.7,96.188v6.459l10.73-6.548a.377.377,0,0,1,.567.323v14.156a.376.376,0,0,1-.567.323L99.7,104.353v6.459a.188.188,0,0,1-.187.188H96.188a.188.188,0,0,1-.187-.187V96.188A.188.188,0,0,1,96.188,96h3.328A.188.188,0,0,1,99.7,96.188Z" transform="translate(-96 -96)" fill="url(#linear-gradient)"/>
</svg>
