<svg xmlns="http://www.w3.org/2000/svg" xmlns:xlink="http://www.w3.org/1999/xlink" width="15" height="15" viewBox="0 0 15 15">
  <defs>
    <linearGradient id="linear-gradient" y1="0.5" x2="1" y2="0.5" gradientUnits="objectBoundingBox">
      <stop offset="0" stop-color="#ee0979"/>
      <stop offset="1" stop-color="#ff6a00"/>
    </linearGradient>
  </defs>
  <path id="_ionicons_svg_ios-skip-forward" d="M107.3,96.188v6.459L96.567,96.1a.376.376,0,0,0-.567.323v14.156a.376.376,0,0,0,.567.323l10.73-6.548v6.459a.188.188,0,0,0,.188.188h3.328a.188.188,0,0,0,.188-.187V96.188a.188.188,0,0,0-.187-.187h-3.328A.188.188,0,0,0,107.3,96.188Z" transform="translate(-96 -96)" fill="url(#linear-gradient)"/>
</svg>
